<svg xmlns="http://www.w3.org/2000/svg" xmlns:xlink="http://www.w3.org/1999/xlink" width="677.33333mm" height="77.61111mm" viewBox="0 0 1920 220"><defs><style>.a{fill:none;}.b{clip-path:url(#a);}.c,.d{fill:#252932;}.d{opacity:0.7;isolation:isolate;}</style><clipPath id="a"><rect class="a" y="-0.00004" width="1920" height="220"/></clipPath></defs><title>footer-waves</title><g class="b"><path class="c" d="M-10,186.60476s654.089-52.318,1002.454-4.38,937.546,4.38,937.546,4.38v33.395H-10Z"/><path class="d" d="M-10,148.34993s194.624,27.066,386.407-50.615,422.865,117.363,612.66309,38.342,389.98-83.647,548.80005-72.7,392.12475,85.447,392.12475,85.447v71.178h-1940Z"/><path class="d" d="M-10,38.875s87.13794,88.506,241.43408,76.946,288.949,3.34,335.46607,15.167,213.78,44.061,338.885-27.3,426.65991,40.148,655.167,38.194S1930,9,1930,9V220H-10Z"/><path class="d" d="M-10,108.3199s202.084,82.714,477.5,23.662,379.31689,57.872,598.616-55.311,322.54,34.927,506.3,32.119S1930,67.323,1930,67.323V220H-10Z"/></g></svg>