<?xml version="1.0" encoding="UTF-8"?><svg xmlns="http://www.w3.org/2000/svg" xmlns:xlink="http://www.w3.org/1999/xlink" viewBox="0 0 48 48"><defs><style>.a{clip-path:url(#b);}.b{fill:#fff;}</style><clipPath id="b"><rect width="48" height="48"/></clipPath></defs><g id="a" class="a"><g transform="translate(-1)"><path class="b" d="M77.378,67.417H51.539a.786.786,0,0,1-.651-.257l-2.4-2.4-.018-.017a2.311,2.311,0,0,0-1.84-.74H34.669A2.572,2.572,0,0,0,32,66.456v35.875A2.739,2.739,0,0,0,34.669,105H77.378a2.572,2.572,0,0,0,2.456-2.669V69.872A2.375,2.375,0,0,0,77.378,67.417ZM34.669,65.708H46.628a.674.674,0,0,1,.659.266l2.393,2.394a2.474,2.474,0,0,0,1.859.757H77.378a.68.68,0,0,1,.747.747V74.4a2.55,2.55,0,0,0-.854-.147H34.563a2.55,2.55,0,0,0-.854.147V66.456C33.708,65.994,34.207,65.708,34.669,65.708Zm43.456,36.622c0,.462-.286.961-.747.961H34.669a1.041,1.041,0,0,1-.961-.961V76.812a.855.855,0,0,1,.854-.854H77.271a.855.855,0,0,1,.854.854Z" transform="translate(-31 -60)"/><path class="b" d="M13.46,44.607A2.239,2.239,0,0,1,11.515,46.3a2.547,2.547,0,0,1-2.276-.36,1.737,1.737,0,0,1-.1-2.626,5.025,5.025,0,0,1,2.711-.911.879.879,0,0,0,.551-.261c.226-.254.155-.145.155-5.76,0-.4-.194-.5-.6-.434C11.67,36,5.406,37.17,5.406,37.17c-.36.078-.473.184-.473.589,0,8.283.039,7.9-.088,8.453a2.054,2.054,0,0,1-1.066,1.394,4.109,4.109,0,0,1-2.238.367A1.8,1.8,0,0,1,.514,44.917a5.025,5.025,0,0,1,2.711-.911.879.879,0,0,0,.551-.261c.356-.406.064-9.056.184-9.536a.7.7,0,0,1,.251-.455,1.072,1.072,0,0,1,.473-.194c7.2-1.348,8.079-1.521,8.2-1.521a.555.555,0,0,1,.639.621C13.53,44.818,13.562,44.165,13.46,44.607Z" transform="translate(17.923 -10.965)"/></g></g></svg>