<?xml version="1.0" encoding="UTF-8"?><svg xmlns="http://www.w3.org/2000/svg" xmlns:xlink="http://www.w3.org/1999/xlink" viewBox="0 0 48 48"><defs><style>.a{clip-path:url(#b);}.b{fill:#fff;}</style><clipPath id="b"><rect width="48" height="48"/></clipPath></defs><g id="a" class="a"><path class="b" d="M72,48h-.058a24,24,0,0,0,0,48H72a24,24,0,1,0,0-48Zm.958,14.365a35.58,35.58,0,0,0,7.408-.981A43.064,43.064,0,0,1,81.6,71.054H72.958Zm0-1.927V50.077c2.585.715,5.215,4.165,6.877,9.462A33.694,33.694,0,0,1,72.958,60.438ZM71.042,50.054v10.4a33.364,33.364,0,0,1-6.935-.923C65.792,54.2,68.435,50.723,71.042,50.054Zm0,12.312v8.677h-8.7a43.064,43.064,0,0,1,1.235-9.669A36.137,36.137,0,0,0,71.042,62.365ZM60.4,71.042H49.95a21.937,21.937,0,0,1,5-13.038,34.891,34.891,0,0,0,6.785,2.862A45.268,45.268,0,0,0,60.4,71.042Zm0,1.915a44.721,44.721,0,0,0,1.315,10.177A35.932,35.932,0,0,0,54.935,86a22.011,22.011,0,0,1-5-13.038Zm1.938,0h8.7v8.665a35.376,35.376,0,0,0-7.465,1A43.064,43.064,0,0,1,62.342,72.958Zm8.7,10.592V93.958c-2.608-.681-5.25-4.142-6.935-9.473A32.612,32.612,0,0,1,71.042,83.55Zm1.915,10.373V83.538a33.918,33.918,0,0,1,6.888.912C78.173,89.758,75.554,93.208,72.958,93.923Zm0-12.3V72.958H81.6a43.046,43.046,0,0,1-1.235,9.658A35.585,35.585,0,0,0,72.958,81.623Zm10.569-8.665H94.05a21.966,21.966,0,0,1-5,13.038,35.48,35.48,0,0,0-6.842-2.885A44.515,44.515,0,0,0,83.527,72.958Zm0-1.915a45.292,45.292,0,0,0-1.3-10.165A35.762,35.762,0,0,0,89.054,58a21.942,21.942,0,0,1,5,13.05H83.527Zm4.212-14.515A33.371,33.371,0,0,1,81.7,59.019a21.585,21.585,0,0,0-4.558-8.492A22.192,22.192,0,0,1,87.738,56.527ZM66.785,50.55a21.344,21.344,0,0,0-4.535,8.458,32.78,32.78,0,0,1-5.977-2.481A21.939,21.939,0,0,1,66.785,50.55ZM56.262,87.462a33.123,33.123,0,0,1,5.977-2.481,21.551,21.551,0,0,0,4.546,8.469A21.955,21.955,0,0,1,56.262,87.462Zm20.885,6.012a21.564,21.564,0,0,0,4.569-8.5,33.371,33.371,0,0,1,6.035,2.492A22.154,22.154,0,0,1,77.146,93.473Z" transform="translate(-48 -48)"/></g></svg>