<?xml version="1.0" encoding="UTF-8"?><svg xmlns="http://www.w3.org/2000/svg" xmlns:xlink="http://www.w3.org/1999/xlink" viewBox="0 0 48 48"><defs><style>.a{clip-path:url(#b);}.b,.e{fill:none;}.b{stroke:#fff;stroke-width:2px;}.c{fill:#fff;}.d{stroke:none;}</style><clipPath id="b"><rect width="48" height="48"/></clipPath></defs><g id="a" class="a"><g transform="translate(-1387 -1270)"><g class="b" transform="translate(1387 1274)"><path class="d" d="M2,0H45a3,3,0,0,1,3,3V38a0,0,0,0,1,0,0H0a0,0,0,0,1,0,0V2A2,2,0,0,1,2,0Z"/><path class="e" d="M2,1H45a2,2,0,0,1,2,2V36a1,1,0,0,1-1,1H2a1,1,0,0,1-1-1V2A1,1,0,0,1,2,1Z"/></g><g class="b" transform="translate(1399 1301)"><circle class="d" cx="1" cy="1" r="1"/><circle class="e" cx="1" cy="1" r="2"/></g><g class="b" transform="translate(1406 1301)"><circle class="d" cx="1" cy="1" r="1"/><circle class="e" cx="1" cy="1" r="2"/></g><g class="b" transform="translate(1417 1301)"><rect class="d" width="6" height="2" rx="1"/><rect class="e" x="-1" y="-1" width="8" height="4" rx="2"/></g><rect class="c" width="6" height="2" transform="translate(1392 1312)"/><rect class="c" width="6" height="2" transform="translate(1426 1312)"/><rect class="c" width="2" height="10" transform="translate(1433 1279) rotate(90)"/><rect class="c" width="2" height="10" transform="translate(1433 1283) rotate(90)"/><rect class="c" width="2" height="10" transform="translate(1433 1287) rotate(90)"/><rect class="c" width="2" height="10" transform="translate(1433 1291) rotate(90)"/></g></g></svg>