<?xml version="1.0" encoding="UTF-8"?><svg xmlns="http://www.w3.org/2000/svg" xmlns:xlink="http://www.w3.org/1999/xlink" viewBox="0 0 48 48"><defs><style>.a{clip-path:url(#b);}.b{fill:#fff;}</style><clipPath id="b"><rect width="48" height="48"/></clipPath></defs><g id="a" class="a"><g transform="translate(-64 -64)"><g transform="translate(76.613 76.483)"><path class="b" d="M172.4,159.9a11.5,11.5,0,1,0,8.137,3.367A11.428,11.428,0,0,0,172.4,159.9Zm0,21.09a9.586,9.586,0,1,1,9.587-9.586A9.584,9.584,0,0,1,172.4,180.99Z" transform="translate(-160.9 -159.9)"/></g><g transform="translate(64 64)"><path class="b" d="M81.223,66.354a8.169,8.169,0,0,0,13.553,0,22.5,22.5,0,0,1,3.741,1.551,8.174,8.174,0,0,0,9.579,9.583,22.482,22.482,0,0,1,1.551,3.743,8.17,8.17,0,0,0,0,13.546,22.483,22.483,0,0,1-1.553,3.745,8.2,8.2,0,0,0-1.559-.148,8.168,8.168,0,0,0-8.016,9.721,22.488,22.488,0,0,1-3.746,1.553,8.17,8.17,0,0,0-13.539,0,22.491,22.491,0,0,1-3.746-1.552,8.173,8.173,0,0,0-9.575-9.572,22.5,22.5,0,0,1-1.554-3.745,8.17,8.17,0,0,0,0-13.547A22.483,22.483,0,0,1,67.9,77.488a8.193,8.193,0,0,0,1.565.149A8.169,8.169,0,0,0,77.483,67.9a22.521,22.521,0,0,1,3.741-1.551M93.759,64a6.167,6.167,0,0,1-11.518,0A24.532,24.532,0,0,0,75.1,66.961a6.169,6.169,0,0,1-8.142,8.145A24.537,24.537,0,0,0,64,82.248a6.168,6.168,0,0,1,0,11.515,24.54,24.54,0,0,0,2.962,7.141,6.168,6.168,0,0,1,8.14,8.138A24.532,24.532,0,0,0,82.245,112a6.167,6.167,0,0,1,11.509,0,24.53,24.53,0,0,0,7.142-2.959,6.169,6.169,0,0,1,8.14-8.137A24.54,24.54,0,0,0,112,93.763a6.168,6.168,0,0,1,0-11.515,24.537,24.537,0,0,0-2.958-7.142,6.168,6.168,0,0,1-8.142-8.145A24.53,24.53,0,0,0,93.759,64Z" transform="translate(-64 -64)"/></g></g></g></svg>