<?xml version="1.0" encoding="UTF-8"?><svg xmlns="http://www.w3.org/2000/svg" xmlns:xlink="http://www.w3.org/1999/xlink" width="300" height="247.784" viewBox="0 0 300 247.784"><defs><linearGradient id="a" x1="1" y1="0.944" x2="0.258" gradientUnits="objectBoundingBox"><stop offset="0" stop-color="#ff34a1"/><stop offset="1" stop-color="#6591f5"/></linearGradient></defs><g transform="translate(-28.867 -79.799)"><path d="M322.918,225.736c23.016,4.4,51.626,5.514,63.974,20.339s10.389,20.9,6.633,37.361-19.42,32.287-37.241,38.12-89.307,41.757-125.55,42.316-56.422,6.713-69.608-15.864-31.727-83.953-9.39-101.974S299.9,221.341,322.918,225.736Z" transform="translate(-67.513 -86.838)" fill="#fff" opacity="0.6"/><path d="M107.532,179.524C77.923,196.866,50.951,228.313,46.8,246.294s3,36.6,5.834,46.632c5.075,17.862,7.153,31.767,12.387,39.679s11.188,15.3,28.77,15.664,54.184-12.907,77.32-19.78C219.616,314.1,258.656,279.94,273,245.3s19.62-93.743-15.144-102.454S137.142,162.222,107.532,179.524Z" transform="translate(-10.004 -36.869)" fill="#fff" opacity="0.5"/><path d="M118.827,275.6c-19.18-3.556-48.35-32.686-64.653-61.536S30.079,160,28.92,142.255,45.623,98.46,69.4,89.11s55.982-15.144,83.034,0S275.9,165.351,275.744,195.6s-7.992,57.46-55.263,70.887S138.007,279.153,118.827,275.6Z" fill="#fff" opacity="0.4"/><path d="M304.12,353.612a30.339,30.339,0,0,0,.519-11.388H126.983A15.979,15.979,0,0,1,111,326.24V187.983A15.979,15.979,0,0,1,126.983,172h197a15.979,15.979,0,0,1,15.983,15.983V293.074s5.115,17.422,0,34.724-10.229,23.5-20.419,34.484-32.726,20.659-32.726,20.659S300.683,368.436,304.12,353.612Z" transform="translate(-49.314 -55.359)" fill="#fff" opacity="0.9"/><g transform="translate(86.061 159.797)"><g transform="translate(0.28 0)"><path d="M175.7,333.712l8.991-46.112,14.945,33.325L214.7,287.6l8.072,46.112H216.1l-4.355-25.853L199.236,335.71l-12.347-27.931-4.515,25.933Z" transform="translate(-175.7 -287.6)" fill="url(#a)"/><path d="M322.653,295.6v25.853c0,2.318.08,5.155,1.359,7.392a9.417,9.417,0,0,0,15.983,0c1.279-2.238,1.359-5.075,1.359-7.392V295.6h6.553v27.611a16.026,16.026,0,0,1-4,11.148,16.6,16.6,0,0,1-23.815,0,15.9,15.9,0,0,1-4-11.148V295.6h6.553Z" transform="translate(-259.998 -292.403)" fill="url(#a)"/><path d="M436.058,303.969a7.089,7.089,0,0,0-1.918-2.717,6.928,6.928,0,0,0-4.635-1.558c-4,0-6.034,2.4-6.034,5.155,0,1.279.44,3.556,4.635,5.195l4.316,1.718c7.912,3.2,10.109,7.712,10.109,12.627,0,8.152-5.794,13.786-13.826,13.786a12.612,12.612,0,0,1-10.11-4.316,13.706,13.706,0,0,1-3.6-8.351l6.513-1.4a9.249,9.249,0,0,0,1.8,5.474,6.759,6.759,0,0,0,5.594,2.557,6.873,6.873,0,0,0,7.073-7.193c0-4.355-3.357-6.194-6.194-7.352l-4.116-1.718c-3.556-1.478-8.751-4.435-8.751-10.869,0-5.794,4.515-11.308,12.547-11.308a12.7,12.7,0,0,1,8.631,2.877,14.429,14.429,0,0,1,3.277,4.315Z" transform="translate(-319.379 -291.263)" fill="url(#a)"/><path d="M510.953,295.6v42.915H504.4V295.6Z" transform="translate(-373.056 -292.403)" fill="url(#a)"/><path d="M575.3,304.429a16.662,16.662,0,0,0-11.628-4.755c-9.31,0-15.624,6.873-15.624,16.343,0,9.071,6.553,16.063,15.7,16.063a17.011,17.011,0,0,0,11.588-4.955v7.792a23.6,23.6,0,0,1-11.788,3.2,21.6,21.6,0,0,1-15.184-5.914,20.983,20.983,0,0,1-6.873-16.223,22.43,22.43,0,0,1,6.873-16.783c4.435-4.2,9.59-5.594,15.5-5.594a20.688,20.688,0,0,1,11.468,3.077v7.752Z" transform="translate(-395.332 -291.202)" fill="url(#a)"/></g><g transform="translate(0 56.302)"><path d="M199.526,450.234a4.921,4.921,0,0,0-4.076-2.158c-2.637,0-3.436,1.638-3.436,2.917a2.1,2.1,0,0,0,.8,1.678,8.622,8.622,0,0,0,3,1.439,14.722,14.722,0,0,1,5.075,2.517,6.855,6.855,0,0,1,2.158,5.275c0,4.875-3.516,8.231-8.711,8.231a10.264,10.264,0,0,1-8.631-4.715l3.2-3.037a5.881,5.881,0,0,0,5.275,3.357c2.2,0,3.876-1.359,3.876-3.436a2.962,2.962,0,0,0-.959-2.238,10.591,10.591,0,0,0-3.876-1.838,11.353,11.353,0,0,1-4.156-2.2,5.838,5.838,0,0,1-2-4.675c0-3.676,2.477-7.352,8.032-7.352a9.8,9.8,0,0,1,7.113,2.917Z" transform="translate(-185.7 -442.202)" fill="#5a616c"/><path d="M270.664,468.278a8.664,8.664,0,0,1,2.757,6.393,8.494,8.494,0,0,1-2.757,6.353,10.566,10.566,0,0,1-13.106,0,8.64,8.64,0,0,1-2.757-6.353,8.518,8.518,0,0,1,2.757-6.393,10.566,10.566,0,0,1,13.106,0Zm-2,6.393a4.6,4.6,0,1,0-4.6,4.6A4.554,4.554,0,0,0,268.666,474.671Z" transform="translate(-227.189 -455.411)" fill="#5a616c"/><path d="M333.555,439.5v27.372H329V439.5Z" transform="translate(-271.739 -439.5)" fill="#5a616c"/><path d="M374.575,467.3v9.19a3.635,3.635,0,0,0,.959,2.837,3.808,3.808,0,0,0,2.318.839,3.15,3.15,0,0,0,3.277-3.676V467.3h4.6v9.95a6.133,6.133,0,0,1-2,4.995,10.433,10.433,0,0,1-11.828,0,6.133,6.133,0,0,1-2-4.995V467.3Z" transform="translate(-296.296 -456.191)" fill="#5a616c"/><path d="M441.193,462.87v12.347h-4.6V462.87h-1.8v-3.916h1.8V453.4h4.6v5.554h3.157v3.916Z" transform="translate(-335.263 -447.846)" fill="#5a616c"/><path d="M485.057,443.2a2.757,2.757,0,1,1-2.757,2.757A2.763,2.763,0,0,1,485.057,443.2Zm2.318,9.63v16.263h-4.6V452.83Z" transform="translate(-363.783 -441.722)" fill="#5a616c"/><path d="M538.564,468.278a8.664,8.664,0,0,1,2.757,6.393,8.494,8.494,0,0,1-2.757,6.353,10.566,10.566,0,0,1-13.106,0,8.64,8.64,0,0,1-2.757-6.353,8.518,8.518,0,0,1,2.757-6.393,10.566,10.566,0,0,1,13.106,0Zm-2,6.393a4.6,4.6,0,1,0-4.6,4.6A4.554,4.554,0,0,0,536.566,474.671Z" transform="translate(-388.04 -455.411)" fill="#5a616c"/><path d="M596.84,466.519h4.6v2.118A6,6,0,0,1,606.47,466a6.117,6.117,0,0,1,4.8,2,6.913,6.913,0,0,1,1.279,4.6v10.189h-4.6v-8.871a4.616,4.616,0,0,0-.879-3.2,2.926,2.926,0,0,0-2.158-.839,3.016,3.016,0,0,0-2.8,1.439,5.527,5.527,0,0,0-.719,3.157v8.311h-4.6V466.519Z" transform="translate(-432.53 -455.411)" fill="#5a616c"/></g></g></g></svg>